<?xml version="1.0" encoding="utf-8"?>
<!-- Generator: Adobe Illustrator 19.0.0, SVG Export Plug-In . SVG Version: 6.00 Build 0)  -->
<svg version="1.1" id="Layer_1" xmlns="http://www.w3.org/2000/svg" xmlns:xlink="http://www.w3.org/1999/xlink" x="0px" y="0px"
	 viewBox="0 0 129.3 70" style="enable-background:new 0 0 129.3 70;" xml:space="preserve">
<style type="text/css">
	.st0{fill:none;}
	.st1{fill:#191919;}
</style>
<g>
	<rect class="st0" width="129.3" height="70"/>
	<g>
		<g id="XMLID_234_">
			<path id="XMLID_263_" class="st1" d="M7.9,12.1c0.8,0,1.5,0.1,2.2,0.4c0.7,0.2,1.3,0.6,1.8,1c0.5,0.4,0.9,0.9,1.2,1.5
				c0.3,0.6,0.4,1.3,0.4,2c0,1.1-0.3,2-1,2.8c0.9,0.3,1.5,0.8,2,1.5c0.5,0.7,0.8,1.5,0.8,2.5c0,0.7-0.1,1.4-0.4,2
				c-0.3,0.6-0.7,1.1-1.2,1.5c-0.5,0.4-1.1,0.8-1.8,1c-0.7,0.2-1.4,0.4-2.2,0.4H2V12.1H7.9z M6.1,15.8v2.9h1.6
				c0.5,0,0.9-0.1,1.2-0.4c0.3-0.3,0.4-0.6,0.4-1.1c0-0.4-0.1-0.8-0.4-1.1c-0.3-0.3-0.7-0.4-1.2-0.4H6.1z M6.1,22.1V25h3.3
				c0.5,0,0.9-0.1,1.2-0.4c0.3-0.2,0.4-0.6,0.4-1.1c0-0.5-0.1-0.8-0.4-1.1c-0.3-0.2-0.7-0.4-1.2-0.4H6.1z"/>
			<path id="XMLID_261_" class="st1" d="M76.2,16h-5v12.6h-4.3V16h-5v-3.9h14.2V16z"/>
			<path id="XMLID_259_" class="st1" d="M107,20.4v-8.3h4.3v16.8H110l-9-8.7v8.4h-4.3V11.8h1.4L107,20.4z"/>
			<path id="XMLID_256_" class="st1" d="M120.3,12.1c1.3,0,2.5,0.2,3.6,0.6c1.1,0.4,2.1,0.9,2.9,1.6c0.8,0.7,1.4,1.6,1.9,2.6
				c0.5,1,0.7,2.2,0.7,3.4c0,1.3-0.2,2.4-0.7,3.4c-0.5,1-1.1,1.9-1.9,2.6c-0.8,0.7-1.8,1.3-2.9,1.7c-1.1,0.4-2.3,0.6-3.6,0.6h-5.8
				V12.1H120.3z M118.8,16v8.7h1.4c0.7,0,1.3-0.1,1.8-0.3c0.6-0.2,1.1-0.5,1.5-0.9c0.4-0.4,0.7-0.8,1-1.4s0.4-1.2,0.4-1.9
				c0-0.7-0.1-1.4-0.4-1.9c-0.2-0.5-0.6-1-1-1.3c-0.4-0.4-0.9-0.6-1.5-0.8c-0.6-0.2-1.2-0.3-1.8-0.3H118.8z"/>
			<path id="XMLID_254_" class="st1" d="M8.9,58H7.5L0,41.1h4.9l3.3,8.1l3.3-8.1h4.9L8.9,58z"/>
			<path id="XMLID_251_" class="st1" d="M68.4,41.1c0.9,0,1.7,0.1,2.5,0.4c0.8,0.3,1.5,0.6,2,1.1c0.6,0.5,1,1.1,1.3,1.8
				c0.3,0.7,0.5,1.5,0.5,2.4c0,1.1-0.2,2-0.7,2.8c-0.5,0.8-1.1,1.4-1.9,1.9l4.4,6.1h-4.8L68,52.5h-1.8v5.1h-4.3V41.1H68.4z
				 M66.2,44.8v3.9h2.2c0.6,0,1.1-0.2,1.4-0.5c0.4-0.4,0.5-0.8,0.5-1.4c0-0.6-0.2-1.1-0.5-1.4c-0.4-0.4-0.8-0.5-1.4-0.5H66.2z"/>
			<path id="XMLID_249_" class="st1" d="M102.2,40.8c1.5,0,2.6,0.3,3.6,1c0.9,0.6,1.6,1.4,2.1,2.4l-2.9,2.2c-0.4-0.6-0.8-1-1.2-1.3
				c-0.4-0.3-0.9-0.5-1.6-0.5c-0.4,0-0.8,0.1-1.1,0.2c-0.3,0.2-0.4,0.4-0.4,0.8c0,0.3,0.1,0.6,0.3,0.8c0.2,0.2,0.6,0.4,1.1,0.6
				l1.9,0.8c1.4,0.6,2.4,1.3,3.2,2c0.7,0.8,1.1,1.7,1.1,3c0,0.8-0.2,1.5-0.5,2.2c-0.3,0.6-0.7,1.2-1.3,1.6c-0.6,0.4-1.2,0.8-1.9,1
				s-1.5,0.4-2.4,0.4c-1.5,0-2.9-0.3-4-1c-1.1-0.7-2-1.6-2.6-2.7l2.9-2.2c0.2,0.3,0.4,0.5,0.7,0.8c0.2,0.3,0.5,0.5,0.8,0.7
				c0.3,0.2,0.6,0.4,1,0.5c0.4,0.1,0.8,0.2,1.3,0.2c1.1,0,1.7-0.4,1.7-1.2c0-0.4-0.1-0.7-0.4-0.9c-0.3-0.2-0.7-0.4-1.3-0.7l-1.7-0.8
				c-1.3-0.6-2.3-1.3-3.1-2.1c-0.7-0.8-1.1-1.8-1.1-2.9c0-0.7,0.1-1.4,0.4-2c0.3-0.6,0.7-1.1,1.2-1.5c0.5-0.4,1.1-0.8,1.8-1
				C100.6,40.9,101.3,40.8,102.2,40.8z"/>
			<path id="XMLID_243_" class="st1" d="M58.9,20.5C58.9,9.2,49.7,0,38.4,0C27.1,0,17.9,9.2,17.9,20.5c0,5.7,2.3,10.8,6,14.5
				c-3.7,3.7-6,8.8-6,14.5c0,11.3,9.2,20.5,20.5,20.5c11.3,0,20.5-9.2,20.5-20.5c0-5.7-2.3-10.8-6-14.5
				C56.6,31.3,58.9,26.2,58.9,20.5z M38.4,58c-4.7,0-8.5-3.8-8.5-8.5c0-4.7,3.8-8.5,8.5-8.5c4.7,0,8.5,3.8,8.5,8.5
				C46.9,54.2,43.1,58,38.4,58z M29.9,35c0-1.9,1.5-3.4,3.4-3.4c1.9,0,3.4,1.5,3.4,3.4c0,1.9-1.5,3.4-3.4,3.4
				C31.4,38.4,29.9,36.9,29.9,35z M43.4,38.4c-1.9,0-3.4-1.5-3.4-3.4c0-1.9,1.5-3.4,3.4-3.4c1.9,0,3.4,1.5,3.4,3.4
				C46.9,36.9,45.3,38.4,43.4,38.4z M38.4,29c-4.7,0-8.5-3.8-8.5-8.5c0-4.7,3.8-8.5,8.5-8.5c4.7,0,8.5,3.8,8.5,8.5
				C46.9,25.2,43.1,29,38.4,29z"/>
			<path id="XMLID_240_" class="st1" d="M85.8,44.8c2.5,0,4.6,2,4.6,4.6c0,2.5-2,4.6-4.6,4.6c-2.5,0-4.6-2-4.6-4.6
				C81.3,46.8,83.3,44.8,85.8,44.8 M85.8,40.8c-4.7,0-8.6,3.8-8.6,8.6c0,4.7,3.8,8.6,8.6,8.6c4.7,0,8.6-3.8,8.6-8.6
				C94.4,44.6,90.6,40.8,85.8,40.8L85.8,40.8z"/>
			<path id="XMLID_237_" class="st1" d="M85.8,15.9c2.5,0,4.6,2,4.6,4.6c0,2.5-2,4.5-4.6,4.5c-2.5,0-4.6-2-4.6-4.5
				C81.3,17.9,83.3,15.9,85.8,15.9 M85.8,11.8c-4.7,0-8.6,3.8-8.6,8.6c0,4.7,3.8,8.6,8.6,8.6c4.7,0,8.6-3.8,8.6-8.6
				C94.4,15.7,90.6,11.8,85.8,11.8L85.8,11.8z"/>
			<circle id="XMLID_236_" class="st1" cx="81.3" cy="35" r="2.8"/>
			<circle id="XMLID_235_" class="st1" cx="90.3" cy="35" r="2.8"/>
		</g>
	</g>
</g>
</svg>
