<?xml version="1.0" encoding="utf-8"?>
<!-- Generator: Adobe Illustrator 19.0.0, SVG Export Plug-In . SVG Version: 6.00 Build 0)  -->
<svg version="1.1" id="Layer_1" xmlns="http://www.w3.org/2000/svg" xmlns:xlink="http://www.w3.org/1999/xlink" x="0px" y="0px"
	 viewBox="0 0 80 80" style="enable-background:new 0 0 80 80;" xml:space="preserve">
<style type="text/css">
	.st0{fill-rule:evenodd;clip-rule:evenodd;fill:#FFF000;}
	.st1{fill:#191919;}
</style>
<g>
	<rect class="st0" width="80" height="80"/>
	<path class="st1" d="M60.5,25.5c0-11.3-9.2-20.5-20.5-20.5c-11.3,0-20.5,9.2-20.5,20.5c0,5.6,2.3,10.8,6,14.5
		c-3.7,3.7-6,8.8-6,14.5c0,11.3,9.2,20.5,20.5,20.5c11.3,0,20.5-9.2,20.5-20.5c0-5.6-2.3-10.8-6-14.5C58.2,36.3,60.5,31.2,60.5,25.5
		z M40,62.9c-4.7,0-8.5-3.8-8.5-8.5c0-4.7,3.8-8.5,8.5-8.5c4.7,0,8.5,3.8,8.5,8.5C48.5,59.1,44.7,62.9,40,62.9z M31.7,40
		c0-1.9,1.5-3.4,3.4-3.4c1.9,0,3.4,1.5,3.4,3.4c0,1.9-1.5,3.4-3.4,3.4C33.2,43.4,31.7,41.9,31.7,40z M41.4,40c0-1.9,1.5-3.4,3.4-3.4
		c1.9,0,3.4,1.5,3.4,3.4c0,1.9-1.5,3.4-3.4,3.4C43,43.4,41.4,41.9,41.4,40z M40,34c-4.7,0-8.5-3.8-8.5-8.5c0-4.7,3.8-8.5,8.5-8.5
		c4.7,0,8.5,3.8,8.5,8.5C48.5,30.2,44.7,34,40,34z"/>
</g>
</svg>
